<svg version="1.1" id="Layer_1" xmlns="http://www.w3.org/2000/svg" xmlns:xlink="http://www.w3.org/1999/xlink" x="0px" y="0px"
	 width="100%" viewBox="0 0 240 240" enable-background="new 0 0 240 240" xml:space="preserve">
<path fill="#02294C" opacity="1.000000" stroke="none" 
	d="
M241.000000,91.000000 
	C241.000000,141.333328 241.000000,191.166672 241.000000,241.000000 
	C161.000000,241.000000 81.000000,241.000000 1.000000,241.000000 
	C1.000000,161.000000 1.000000,81.000000 1.000000,1.000000 
	C81.000000,1.000000 161.000000,1.000000 241.000000,1.000000 
	C241.000000,30.833334 241.000000,60.666668 241.000000,91.000000 
M122.342552,136.646759 
	C122.529984,136.301254 122.717415,135.955750 122.992455,135.290100 
	C122.992455,135.290100 123.260956,135.094940 123.821472,134.943176 
	C124.293121,134.366882 124.764763,133.790573 125.978645,133.094940 
	C129.452011,133.046677 128.862793,130.321411 129.782959,127.912209 
	C130.222595,126.736206 130.662216,125.560196 131.116943,123.882111 
	C131.144165,123.716896 131.171371,123.551689 131.591614,123.481102 
	C131.591614,123.481102 131.992615,123.432838 132.580063,123.740379 
	C134.554321,124.575935 136.528564,125.411491 138.871490,126.403076 
	C137.821060,123.585487 136.990143,121.356667 136.723328,118.758896 
	C137.798508,118.498077 138.873703,118.237267 140.740112,117.862625 
	C145.511459,118.249390 150.282791,118.636147 154.882507,119.781784 
	C152.740341,120.530510 150.596298,121.273865 148.456604,122.029633 
	C146.648117,122.668411 144.844681,123.321556 142.839813,124.535095 
	C142.723923,124.698395 142.608017,124.861694 141.837753,125.364372 
	C141.564804,126.120651 141.077408,126.869652 141.051437,127.634323 
	C140.724747,137.249817 140.274414,146.870224 140.407959,156.481705 
	C140.426422,157.810516 143.410645,160.222687 145.034454,160.233429 
	C164.650009,160.363297 184.268692,160.189133 203.883850,159.906204 
	C205.565231,159.881958 207.227264,158.517303 208.903687,157.400040 
	C208.903687,157.400040 209.035873,157.048782 209.550003,156.388535 
	C209.701859,147.784683 209.914185,139.181335 209.988266,130.576813 
	C210.060059,122.239204 209.996429,122.048470 201.659241,122.101669 
	C197.813538,122.126213 196.775833,120.621414 196.947144,117.084541 
	C197.395187,107.833946 197.576263,98.570641 197.990250,89.318054 
	C198.144547,85.869194 198.649872,82.436043 199.490158,78.890129 
	C199.787704,78.571602 200.085251,78.253075 200.382797,77.934540 
	C200.267685,77.828987 200.152573,77.723442 200.037445,77.617897 
	C199.693054,78.080215 199.348679,78.542534 198.288712,78.805946 
	C196.338669,74.725258 197.030518,73.591530 201.044174,72.916313 
	C203.646683,72.478500 207.141464,74.917709 208.841125,70.898094 
	C208.841125,70.898094 208.771332,70.940392 209.405106,70.384491 
	C209.553909,59.807724 209.718964,49.231083 209.802490,38.653793 
	C209.806564,38.137085 209.096390,37.614742 208.895706,37.094231 
	C208.895706,37.094231 208.879578,37.270397 208.506424,36.612793 
	C206.982590,36.110703 205.458420,35.172997 203.934952,35.174122 
	C189.228500,35.184982 174.521774,35.327438 159.816635,35.537014 
	C158.848022,35.550819 157.891602,36.421471 156.662399,37.090954 
	C156.662399,37.090954 156.330338,37.098343 155.589310,37.095314 
	C150.715073,40.089161 147.726685,44.533207 145.186005,50.045017 
	C143.399490,52.637791 141.612961,55.230564 139.245056,58.091671 
	C138.746155,58.989544 138.247269,59.887413 137.022751,60.896511 
	C133.956039,65.205307 130.889313,69.514107 127.242821,74.093170 
	C126.749199,74.993721 126.255577,75.894272 125.129456,77.014885 
	C122.678757,79.317337 120.096985,80.308830 116.873222,77.456268 
	C116.669907,77.225014 116.448906,77.012123 116.104912,76.170708 
	C115.466408,75.382370 114.827904,74.594040 114.080910,73.129456 
	C113.125854,72.007904 112.170807,70.886345 111.097900,69.055061 
	C109.126419,66.632561 107.154930,64.210068 104.827408,61.243279 
	C103.949501,60.094730 103.071587,58.946182 102.075768,57.086082 
	C99.116631,53.321281 96.157486,49.556480 93.086487,45.085701 
	C90.835258,38.700371 87.143883,35.483440 79.556519,35.750153 
	C65.364067,36.249058 51.127602,35.438896 36.908226,35.322773 
	C35.577076,35.311901 34.237225,36.366421 32.440338,37.623478 
	C32.292168,45.040382 32.025932,52.457600 32.045357,59.874065 
	C32.055153,63.613907 32.582745,67.352386 33.062561,71.771782 
	C35.585381,72.177757 38.096889,72.798859 40.634041,72.932259 
	C43.456776,73.080673 45.810417,73.256195 44.593758,77.115097 
	C43.461273,77.115097 42.381916,77.115097 42.267818,77.115097 
	C42.892399,81.564400 43.732853,85.634102 43.983402,89.739807 
	C44.488010,98.008987 44.544777,106.305138 45.025761,114.576241 
	C45.442554,121.743462 44.962605,122.618042 37.874298,121.861542 
	C33.275791,121.370766 31.898466,123.152786 31.961468,127.381554 
	C32.087776,135.859604 31.951019,144.341385 32.039829,152.820404 
	C32.054657,154.235794 32.659485,155.645020 33.125336,157.398087 
	C33.125336,157.398087 33.128284,157.764328 33.415596,158.507553 
	C35.251282,159.004822 37.082088,159.914093 38.923409,159.935883 
	C58.225529,160.164413 77.529533,160.336502 96.832458,160.289932 
	C99.946373,160.282425 102.485245,159.034531 101.509453,154.651932 
	C100.801270,151.471313 101.132637,148.044998 101.115524,144.727646 
	C101.074829,136.841232 101.102417,128.954483 101.102417,121.267967 
	C97.145813,121.533829 93.862061,122.052589 90.612450,121.889824 
	C87.296158,121.723717 85.942764,118.558922 86.588051,115.390503 
	C87.324890,111.772591 87.306145,107.995422 87.538673,104.282631 
	C87.641907,102.634293 87.556091,100.974121 87.556091,98.189125 
	C90.892532,101.068832 93.303841,103.150047 95.891586,105.876724 
	C96.626724,106.552597 97.361855,107.228477 98.039032,107.915253 
	C98.039032,107.915253 98.093575,107.935661 98.035446,108.633652 
	C98.924446,109.461479 99.813446,110.289299 100.988930,111.328056 
	C100.988930,111.328056 101.095940,111.667343 101.225571,112.222130 
	C101.499092,112.472984 101.772606,112.723839 101.996986,112.991760 
	C101.996986,112.991760 102.040764,112.960670 102.026863,113.668785 
	C102.744919,114.395088 103.462967,115.121391 104.208717,115.858452 
	C104.208717,115.858452 104.236710,115.842827 104.101685,116.568764 
	C103.788361,118.111900 103.475037,119.655029 103.096756,121.518051 
	C105.698067,120.665085 107.505211,121.009628 105.613533,124.451729 
	C107.342468,124.313332 108.611504,124.211754 109.983658,124.788322 
	C110.936325,125.919312 111.888985,127.050301 113.132942,128.537582 
	C113.335541,128.769638 113.557037,128.981979 113.909584,129.887070 
	C115.023224,130.864319 116.136864,131.841553 117.156532,132.837631 
	C117.156532,132.837631 117.194458,132.749619 117.131310,133.482788 
	C118.146339,134.561035 119.161369,135.639297 120.158119,136.780289 
	C120.158119,136.780289 120.125725,136.726532 120.327469,137.221313 
	C120.847954,137.062515 121.368431,136.903717 121.913765,136.870422 
	C121.913765,136.870422 121.786034,136.877640 122.342552,136.646759 
M144.900864,181.747711 
	C144.900864,181.747711 144.734833,181.875931 144.035660,182.194000 
	C143.854065,192.085709 143.656036,201.977234 143.554916,211.869766 
	C143.551117,212.240540 144.488892,212.620956 145.841492,213.182678 
	C147.581711,213.126480 149.321915,213.070282 151.821716,212.825485 
	C152.094604,212.425476 152.601837,212.027863 152.605988,211.625076 
	C152.702621,202.238876 152.815903,192.851028 152.672623,183.467346 
	C152.660095,182.646790 150.896439,181.852966 149.173981,181.149323 
	C148.136932,181.114410 147.099869,181.079483 145.568253,180.906982 
	C145.327530,181.119736 145.086823,181.332474 144.900864,181.747711 
M179.576431,204.526962 
	C179.640015,204.162460 179.703583,203.797958 179.896576,202.832748 
	C179.265457,202.536102 178.634354,202.239456 177.209396,202.101898 
	C176.134567,202.045258 175.059753,201.988617 173.524109,201.533478 
	C172.688950,203.724854 171.853790,205.916245 170.334900,208.623291 
	C165.754089,208.425934 166.589050,204.893906 166.690277,202.036102 
	C166.529572,201.673508 166.368866,201.310913 166.006302,200.089294 
	C166.073105,197.742966 166.139893,195.396637 166.744919,192.928101 
	C166.685898,192.251862 166.626877,191.575623 166.469849,190.151199 
	C166.651672,189.433319 166.833511,188.715439 167.639954,187.919540 
	C169.058044,187.954315 170.476120,187.989090 172.319794,188.574631 
	C173.523010,189.629135 174.726242,190.683655 176.182465,192.160004 
	C176.816544,191.972260 177.450638,191.784531 178.578812,191.003784 
	C178.748840,190.012894 178.918854,189.022018 179.671936,187.846817 
	C181.913544,185.637680 180.143204,185.274551 177.801849,184.460556 
	C173.435501,179.450287 167.048172,179.288391 160.531433,184.069382 
	C160.360855,184.715485 160.190277,185.361572 159.910049,186.682968 
	C159.715164,187.093399 159.520279,187.503830 158.827621,188.220474 
	C158.837585,189.484604 158.847549,190.748734 158.916870,192.925674 
	C158.943588,196.283325 158.970322,199.640976 158.603165,203.368179 
	C158.831390,204.275421 159.059631,205.182648 159.624557,206.744308 
	C160.536240,208.454666 161.447906,210.165039 161.931931,212.175858 
	C161.943665,212.541214 161.955414,212.906555 161.967163,213.271912 
	C162.358688,212.940262 162.750214,212.608612 163.864792,212.466797 
	C165.242584,212.980804 166.620377,213.494812 167.991211,214.430374 
	C168.135010,214.648926 168.278824,214.867462 168.422638,215.085999 
	C168.625793,214.792603 168.828949,214.499207 169.822922,213.993835 
	C171.175278,213.834854 172.527618,213.675888 174.220276,214.045853 
	C175.106491,213.281616 175.992706,212.517380 177.105850,211.135300 
	C177.895554,209.330902 178.685257,207.526505 179.823822,205.750671 
	C179.910721,205.676041 179.997620,205.601410 180.084534,205.526794 
	C179.939926,205.378525 179.795334,205.230240 179.576431,204.526962 
M63.751980,213.083328 
	C65.671349,213.083328 67.590714,213.083328 70.093094,213.083328 
	C70.093094,208.174622 70.093094,203.773315 70.093094,199.277451 
	C72.599106,199.277451 74.505516,199.277451 76.899170,199.277451 
	C76.899170,204.018906 76.899170,208.449097 76.899170,212.902832 
	C79.446289,212.902832 81.499008,212.902832 83.804680,212.902832 
	C83.804680,202.845673 83.810829,193.208298 83.790619,183.570984 
	C83.789291,182.938980 83.586281,182.307404 83.435768,181.436630 
	C81.244728,181.436630 79.206108,181.436630 76.776993,181.436630 
	C76.776993,183.734894 76.777000,185.713242 76.777000,187.691589 
	C76.777000,189.594940 76.776993,191.498291 76.776993,193.110550 
	C71.261406,194.784576 69.364998,193.126556 69.902252,188.319107 
	C70.152634,186.078598 69.945038,183.786926 69.945038,181.287415 
	C66.657143,181.406082 63.449276,179.525620 61.938881,184.340179 
	C61.625515,188.406799 61.312382,192.473434 60.998722,196.540039 
	C60.695206,200.475113 61.053276,204.617905 59.902012,208.287064 
	C58.739552,211.991882 59.830173,212.849472 63.751980,213.083328 
M199.913544,195.510574 
	C197.666122,193.926193 195.286377,192.488922 193.256561,190.662674 
	C192.689972,190.152893 193.156784,188.494492 193.149536,187.363007 
	C194.481903,187.440109 196.897827,187.264435 196.983643,187.632355 
	C198.214722,192.909454 201.854141,189.925980 204.650238,190.325989 
	C205.302979,185.907578 203.993591,182.790955 199.991806,181.226044 
	C195.736282,179.561905 189.110535,180.900299 187.128952,184.010986 
	C184.694351,187.832825 184.682205,192.008209 187.409348,195.624603 
	C188.954239,197.673218 191.375534,199.071564 193.443466,200.710602 
	C194.464355,201.519745 196.201324,202.017960 196.505447,203.000183 
	C196.962952,204.477875 196.447372,206.256851 196.345490,207.907730 
	C194.980743,207.556259 192.540222,207.421753 192.418777,206.819550 
	C191.286896,201.207596 187.469742,203.467316 184.320023,203.479767 
	C184.010834,209.273773 185.795609,212.048187 190.516800,213.428711 
	C196.030502,215.040970 202.345474,213.111923 204.239090,209.236908 
	C206.423935,204.765930 205.025894,200.059586 199.913544,195.510574 
M127.654892,180.589172 
	C123.467697,180.882401 119.745483,181.839706 118.325104,186.541229 
	C116.934563,191.143982 118.597748,194.664429 122.068085,197.553757 
	C124.320190,199.428772 126.791397,201.060760 128.898743,203.079041 
	C129.675308,203.822769 130.223572,205.540161 129.906830,206.490417 
	C129.567047,207.509857 128.089996,208.773758 127.103928,208.778275 
	C126.124710,208.782806 124.907776,207.509872 124.227226,206.504623 
	C123.657127,205.662537 123.710098,204.398636 123.522133,203.490387 
	C121.219704,203.490387 119.317322,203.490387 117.442734,203.490387 
	C116.993553,207.821899 117.926003,211.506134 121.848007,212.968430 
	C126.368996,214.654053 131.385742,215.051010 135.396210,211.728439 
	C140.323059,207.646591 137.854950,197.803406 131.519562,195.238434 
	C127.805496,193.734741 124.418747,192.023041 125.197693,186.574280 
	C126.907684,186.938721 129.651962,187.022232 129.772949,187.628922 
	C130.716812,192.361496 134.134079,190.351212 136.697540,190.842484 
	C137.671738,183.480011 136.137161,181.645508 127.654892,180.589172 
M47.976589,181.137070 
	C44.063194,181.137070 40.149803,181.137070 36.151608,181.137070 
	C36.151608,192.174713 36.151608,202.432861 36.151608,212.980194 
	C38.425476,212.980194 40.495922,212.980194 43.138924,212.980194 
	C43.138924,208.612579 43.138924,204.558868 43.138924,200.590881 
	C53.772984,199.505981 55.672153,198.299957 56.214085,192.593155 
	C56.862610,185.763824 54.991020,182.874908 47.976589,181.137070 
M104.150818,205.432220 
	C106.747063,197.479385 109.343307,189.526566 111.933853,181.591202 
	C106.084389,180.665802 106.086426,180.666565 104.114601,185.886490 
	C103.242851,188.194199 102.360931,190.498062 101.084923,193.851517 
	C99.246101,188.954315 97.813248,185.138290 96.413330,181.409973 
	C94.017921,181.409973 91.943245,181.409973 90.088577,181.409973 
	C93.037460,191.846909 95.921730,202.055176 98.805992,212.263443 
	C98.371155,212.499084 97.936310,212.734726 97.501465,212.970367 
	C99.557602,212.970367 101.613731,212.970367 104.148422,212.970367 
	C104.148422,210.579712 104.148422,208.451843 104.150818,205.432220 
z"/>
<path fill="#FDCB07" opacity="1.000000" stroke="none" 
	d="
M131.198563,123.386482 
	C131.171371,123.551689 131.144165,123.716896 130.966339,124.048981 
	C130.815720,124.215858 130.486008,124.254494 130.165771,124.323250 
	C129.572937,124.940544 129.300354,125.489090 129.013000,126.019592 
	C128.998215,126.001541 129.039917,126.021935 128.692078,126.048752 
	C126.570099,128.729095 124.795967,131.382629 123.011993,134.022568 
	C123.002151,134.008987 123.035110,134.021103 122.581268,134.032562 
	C121.250839,134.272186 120.374260,134.500366 119.407166,134.665085 
	C119.316658,134.601624 119.275291,134.384460 119.315628,134.121002 
	C119.080765,133.671173 118.805565,133.484818 118.316315,133.175842 
	C117.850281,132.800690 117.547676,132.699478 117.194458,132.749619 
	C117.194458,132.749619 117.156532,132.837631 117.214081,132.546814 
	C117.155678,131.899078 117.039726,131.542175 116.961060,130.812683 
	C115.649422,128.938324 114.300507,127.436531 112.852379,125.865929 
	C112.753166,125.797112 112.703491,125.560783 112.692017,125.197388 
	C111.649452,123.711472 110.618355,122.588959 109.544281,121.444550 
	C109.501312,121.422653 109.466515,121.332687 109.559586,120.994278 
	C108.750397,119.769409 107.848129,118.882942 106.756203,117.847649 
	C106.332283,117.469070 106.162575,117.198784 106.060989,116.531647 
	C103.191742,112.667931 100.318916,109.160515 97.392792,105.623138 
	C97.339485,105.593185 97.345818,105.471062 97.400726,105.116409 
	C95.298958,102.173546 93.142273,99.585327 90.995102,96.996994 
	C91.004623,96.996872 91.001244,97.015694 91.020569,96.635773 
	C90.201027,95.375252 89.362175,94.494644 88.455452,93.578415 
	C88.387581,93.542786 88.361954,93.391640 88.405212,93.141708 
	C88.169060,92.771332 87.889648,92.650879 87.572166,92.509941 
	C87.534088,92.489464 87.493706,92.413010 87.531769,92.105270 
	C86.825050,91.566078 86.080269,91.334633 85.318115,91.189293 
	C85.300735,91.275398 85.143677,91.354111 84.843018,91.595459 
	C84.377968,99.972466 84.151825,108.107468 84.065399,116.243965 
	C83.966026,125.600220 84.018555,125.738312 93.513878,125.818138 
	C96.978500,125.847267 98.234444,126.976860 98.141235,130.464127 
	C97.945435,137.789658 98.003494,145.124847 98.104225,152.454071 
	C98.147621,155.611465 96.894028,157.014069 93.693054,157.005875 
	C75.533165,156.959351 57.373051,156.968414 39.213116,157.007629 
	C36.325996,157.013855 34.901325,155.860031 34.923046,152.863663 
	C34.978596,145.200256 35.011009,137.535004 34.895542,129.872849 
	C34.849319,126.805618 36.161407,125.839066 39.098061,125.803612 
	C41.079643,125.779694 43.051414,124.942719 45.287361,124.326324 
	C45.910179,124.028870 46.273216,123.874550 46.930859,123.640396 
	C47.177402,122.681633 47.129345,121.802711 47.014294,120.608124 
	C46.980675,119.865517 47.014042,119.438576 47.293709,118.679108 
	C47.678158,103.454056 47.838108,88.561607 47.893757,73.668762 
	C47.896713,72.877388 47.018867,72.082718 46.164261,71.221634 
	C44.208984,71.042717 42.640511,70.931732 40.858543,70.606667 
	C39.740963,70.533791 38.836884,70.674995 37.640213,70.880043 
	C36.953312,70.899055 36.558998,70.854233 36.050804,70.413895 
	C35.597935,68.249008 34.991501,66.483376 34.966705,64.709602 
	C34.864681,57.410740 35.096302,50.104820 34.883369,42.810894 
	C34.775776,39.125340 36.035088,37.888607 39.737648,37.942940 
	C51.847050,38.120632 63.961594,38.078156 76.072510,37.956387 
	C80.654694,37.910316 85.080521,37.659077 87.527206,42.726925 
	C87.847092,43.389519 89.214714,43.546276 90.054512,43.960922 
	C90.011971,43.984516 90.072739,43.908527 90.070824,44.224403 
	C90.508392,44.922020 90.947876,45.303757 91.281906,45.704685 
	C91.176445,45.723873 91.396095,45.671055 91.310883,46.024147 
	C91.993256,47.068214 92.760834,47.759193 93.553665,48.478210 
	C93.578911,48.506248 93.612274,48.573940 93.491936,48.932968 
	C95.413002,51.680473 97.454407,54.068951 99.527313,56.488144 
	C99.558807,56.518860 99.581985,56.603745 99.550713,56.871265 
	C99.810486,57.298775 100.101540,57.458767 100.302368,57.759201 
	C100.212143,57.899643 100.426193,57.643433 100.346054,57.977921 
	C100.873497,58.852097 101.481079,59.391781 102.045685,59.964035 
	C102.002701,59.996601 102.077347,59.918678 102.076767,60.232132 
	C102.505943,60.938576 102.935707,61.331566 103.224319,61.760826 
	C103.083160,61.797100 103.351555,61.683392 103.284744,62.033531 
	C103.963310,63.114536 104.708679,63.845402 105.303612,64.664734 
	C105.153175,64.753204 105.473984,64.615692 105.474396,64.886353 
	C105.768585,65.325050 106.062363,65.493080 106.236511,65.804626 
	C106.116875,65.948135 106.379433,65.682152 106.312546,66.016190 
	C106.845543,66.885918 107.445427,67.421600 108.022659,67.978485 
	C108.000000,67.999695 108.045723,67.959030 108.048790,68.311127 
	C109.183800,69.975319 110.315735,71.287422 111.269836,72.778976 
	C111.216415,72.844841 111.340851,72.731255 111.373138,72.969986 
	C112.211594,74.197800 113.142181,75.073288 114.036026,75.969719 
	C113.999275,75.990654 114.058426,75.929848 114.032166,76.292168 
	C115.027092,77.756241 116.048279,78.857994 117.036186,79.975990 
	C117.002907,79.992226 117.048248,79.933655 117.049515,80.251801 
	C117.496643,80.950050 117.942513,81.330154 118.203247,81.760040 
	C118.018105,81.809830 118.380737,81.683594 118.286316,81.973969 
	C118.808403,82.782318 119.424904,83.300293 120.366714,83.868187 
	C121.129883,83.900650 121.567719,83.883194 122.185165,84.058167 
	C123.242691,82.828506 124.120621,81.406418 125.001190,79.992828 
	C125.003838,80.001335 124.986359,80.000702 125.337677,79.958786 
	C126.448105,78.595245 127.207214,77.273621 127.984634,75.973328 
	C128.002945,75.994667 127.951675,75.972137 128.304535,75.936485 
	C129.305099,74.817085 129.952820,73.733337 130.737915,72.829964 
	C130.875275,73.010338 130.618393,72.637810 130.874817,72.586533 
	C131.194290,72.220627 131.257339,71.905991 131.334351,71.519272 
	C131.348328,71.447182 131.475647,71.373970 131.829254,71.415512 
	C133.650116,69.190010 135.117355,66.922958 136.675293,64.730530 
	C136.765991,64.805153 136.623520,64.618401 136.881546,64.575150 
	C137.202652,64.218491 137.265747,63.905094 137.341858,63.530945 
	C137.354889,63.470188 137.456253,63.398300 137.820114,63.435905 
	C138.599365,62.508507 139.014755,61.543507 139.447632,60.552353 
	C139.465149,60.526196 139.503983,60.476646 139.858276,60.485870 
	C140.696014,59.556946 141.179474,58.618805 141.818985,57.716118 
	C141.975037,57.751572 141.658401,57.709511 141.929169,57.654594 
	C142.316727,57.274456 142.433517,56.949230 142.607834,56.644855 
	C142.665359,56.665707 142.594559,56.565887 142.860870,56.546776 
	C143.204010,56.212486 143.280838,55.897312 143.368759,55.527115 
	C143.379852,55.472088 143.466309,55.400463 143.827484,55.437363 
	C145.350113,53.550144 146.511581,51.626022 147.798737,49.739258 
	C147.924423,49.776619 147.677414,49.717133 147.941254,49.654121 
	C148.315536,49.268036 148.425980,48.944962 148.691605,48.687733 
	C148.846786,48.753578 148.556564,48.581993 148.906738,48.558174 
	C149.709808,47.595375 150.162704,46.656399 150.765869,45.819115 
	C150.916153,45.920811 150.634338,45.692135 150.979599,45.644096 
	C151.856476,44.656971 152.388092,43.717880 152.991669,42.523163 
	C153.522354,41.750248 153.981079,41.232960 154.769714,40.651619 
	C155.354340,40.014236 155.609039,39.440907 155.877960,38.866997 
	C155.892181,38.866413 155.856842,38.852547 156.280731,38.841530 
	C157.508774,38.616077 158.311798,38.219181 159.117233,38.214252 
	C174.102753,38.122482 189.089661,37.997128 204.071930,38.199604 
	C205.091049,38.213375 206.892868,40.735130 206.941574,42.138687 
	C207.218597,50.123096 207.186493,58.125153 206.975479,66.113701 
	C206.933624,67.698212 205.654404,69.250031 204.535202,70.884003 
	C202.466034,70.901245 200.807480,70.851425 199.045532,70.507187 
	C197.962830,70.489929 196.983521,70.767090 195.932938,71.146973 
	C195.861664,71.249687 195.611786,71.258942 195.224350,71.433594 
	C194.579193,72.374672 194.099274,73.140289 194.096497,73.907639 
	C194.039780,89.568085 194.012451,105.228836 194.085342,120.889046 
	C194.089859,121.858017 194.968948,122.822922 195.637726,123.854538 
	C196.205704,124.100220 196.577103,124.281082 197.171295,124.791412 
	C199.166183,125.340500 200.984909,125.921555 202.700089,125.700203 
	C205.736862,125.308304 207.096893,126.291054 207.079987,129.377075 
	C207.037201,137.193222 207.033417,145.010010 207.087784,152.826035 
	C207.108307,155.775589 205.769287,157.011673 202.846664,157.005112 
	C184.719284,156.964478 166.591690,156.959351 148.464355,157.008789 
	C145.373199,157.017227 143.868439,155.861649 143.907089,152.612274 
	C143.996109,145.129608 144.022598,137.643036 143.871307,130.162155 
	C143.805267,126.896378 145.097305,125.844467 148.286362,125.787178 
	C150.884964,125.740494 153.468033,124.830154 156.315674,123.945297 
	C156.644211,112.728638 156.715088,101.869453 156.804688,90.718903 
	C156.229462,90.250977 155.635529,90.074425 155.041580,89.897865 
	C154.873962,90.733749 154.706345,91.569641 154.516205,92.443314 
	C154.493668,92.481102 154.414139,92.518791 154.150024,92.512932 
	C153.795181,92.813026 153.704468,93.118973 153.600845,93.483124 
	C153.587921,93.541321 153.489670,93.608879 153.126389,93.519638 
	C152.186142,94.636642 151.609161,95.842896 151.015289,97.026749 
	C150.998398,97.004356 151.052338,97.019814 150.812042,97.128387 
	C150.425674,97.544624 150.279633,97.852295 150.088959,98.083748 
	C150.044342,98.007530 150.158234,98.142715 149.796997,98.147202 
	C148.794769,99.233398 148.153793,100.315094 147.392670,101.317146 
	C147.272522,101.237495 147.478806,101.438889 147.126099,101.470108 
	C146.340897,102.451469 145.908401,103.401604 145.435059,104.330322 
	C145.394196,104.308899 145.413803,104.399048 145.106049,104.455544 
	C144.579788,105.054276 144.361282,105.596504 144.094116,106.087769 
	C144.045486,106.036789 144.169983,106.102798 143.887085,106.194115 
	C143.367523,106.796997 143.130859,107.308563 142.831970,107.973686 
	C142.769714,108.127235 142.500854,108.320969 142.180557,108.374710 
	C141.593597,108.975784 141.326935,109.523125 141.034271,110.035995 
	C141.008270,110.001518 141.079102,110.051064 140.737946,110.092789 
	C139.933563,111.093811 139.470337,112.053116 138.914536,113.234711 
	C138.670395,113.754211 138.445206,113.976990 137.809464,114.149765 
	C136.985764,115.088997 136.498978,116.003815 136.015747,116.963539 
	C136.019287,117.008453 135.929688,117.017982 135.588074,117.057114 
	C134.372635,118.520615 133.498810,119.944984 132.611664,121.431244 
	C132.598328,121.493126 132.489792,121.558365 132.158707,121.595200 
	C131.617935,122.216850 131.408249,122.801666 131.198563,123.386482 
z"/>
<path fill="#E5EBF0" opacity="1.000000" stroke="none" 
	d="
M62.611115,183.990005 
	C63.449276,179.525620 66.657143,181.406082 69.945038,181.287415 
	C69.945038,183.786926 70.152634,186.078598 69.902252,188.319107 
	C69.364998,193.126556 71.261406,194.784576 76.776993,193.110550 
	C76.776993,191.498291 76.777000,189.594940 76.777000,187.691589 
	C76.777000,185.713242 76.776993,183.734894 76.776993,181.436630 
	C79.206108,181.436630 81.244728,181.436630 83.435768,181.436630 
	C83.586281,182.307404 83.789291,182.938980 83.790619,183.570984 
	C83.810829,193.208298 83.804680,202.845673 83.804680,212.902832 
	C81.499008,212.902832 79.446289,212.902832 76.899170,212.902832 
	C76.899170,208.449097 76.899170,204.018906 76.899170,199.277451 
	C74.505516,199.277451 72.599106,199.277451 70.093094,199.277451 
	C70.093094,203.773315 70.093094,208.174622 70.093094,213.083328 
	C67.590714,213.083328 65.671349,213.083328 63.379505,212.619461 
	C62.875061,202.767059 62.743088,193.378540 62.611115,183.990005 
z"/>
<path fill="#E3E9EF" opacity="1.000000" stroke="none" 
	d="
M200.126740,195.810638 
	C205.025894,200.059586 206.423935,204.765930 204.239090,209.236908 
	C202.345474,213.111923 196.030502,215.040970 190.516800,213.428711 
	C185.795609,212.048187 184.010834,209.273773 184.320023,203.479767 
	C187.469742,203.467316 191.286896,201.207596 192.418777,206.819550 
	C192.540222,207.421753 194.980743,207.556259 196.345490,207.907730 
	C196.447372,206.256851 196.962952,204.477875 196.505447,203.000183 
	C196.201324,202.017960 194.464355,201.519745 193.443466,200.710602 
	C191.375534,199.071564 188.954239,197.673218 187.409348,195.624603 
	C184.682205,192.008209 184.694351,187.832825 187.128952,184.010986 
	C189.110535,180.900299 195.736282,179.561905 199.991806,181.226044 
	C203.993591,182.790955 205.302979,185.907578 204.650238,190.325989 
	C201.854141,189.925980 198.214722,192.909454 196.983643,187.632355 
	C196.897827,187.264435 194.481903,187.440109 193.149536,187.363007 
	C193.156784,188.494492 192.689972,190.152893 193.256561,190.662674 
	C195.286377,192.488922 197.666122,193.926193 200.126740,195.810638 
z"/>
<path fill="#E1E8ED" opacity="1.000000" stroke="none" 
	d="
M128.043304,180.598389 
	C136.137161,181.645508 137.671738,183.480011 136.697540,190.842484 
	C134.134079,190.351212 130.716812,192.361496 129.772949,187.628922 
	C129.651962,187.022232 126.907684,186.938721 125.197693,186.574280 
	C124.418747,192.023041 127.805496,193.734741 131.519562,195.238434 
	C137.854950,197.803406 140.323059,207.646591 135.396210,211.728439 
	C131.385742,215.051010 126.368996,214.654053 121.848007,212.968430 
	C117.926003,211.506134 116.993553,207.821899 117.442734,203.490387 
	C119.317322,203.490387 121.219704,203.490387 123.522133,203.490387 
	C123.710098,204.398636 123.657127,205.662537 124.227226,206.504623 
	C124.907776,207.509872 126.124710,208.782806 127.103928,208.778275 
	C128.089996,208.773758 129.567047,207.509857 129.906830,206.490417 
	C130.223572,205.540161 129.675308,203.822769 128.898743,203.079041 
	C126.791397,201.060760 124.320190,199.428772 122.068085,197.553757 
	C118.597748,194.664429 116.934563,191.143982 118.325104,186.541229 
	C119.745483,181.839706 123.467697,180.882401 128.043304,180.598389 
z"/>
<path fill="#E9EFF4" opacity="1.000000" stroke="none" 
	d="
M48.407593,181.172882 
	C54.991020,182.874908 56.862610,185.763824 56.214085,192.593155 
	C55.672153,198.299957 53.772984,199.505981 43.138924,200.590881 
	C43.138924,204.558868 43.138924,208.612579 43.138924,212.980194 
	C40.495922,212.980194 38.425476,212.980194 36.151608,212.980194 
	C36.151608,202.432861 36.151608,192.174713 36.151608,181.137070 
	C40.149803,181.137070 44.063194,181.137070 48.407593,181.172882 
M49.389805,190.635422 
	C49.231373,186.527725 46.771847,185.923126 43.146202,186.442398 
	C43.146202,189.436844 43.146202,192.171570 43.146202,195.074387 
	C46.448044,195.700287 48.936871,195.436462 49.389805,190.635422 
z"/>
<path fill="#E5EBEF" opacity="1.000000" stroke="none" 
	d="
M167.015350,187.997559 
	C166.833511,188.715439 166.651672,189.433319 166.298996,190.737289 
	C166.154312,191.899017 166.180496,192.474670 166.206680,193.050308 
	C166.139893,195.396637 166.073105,197.742966 165.997604,200.806396 
	C166.090179,201.701828 166.191437,201.880142 166.292694,202.058456 
	C166.589050,204.893906 165.754089,208.425934 171.016647,208.247513 
	C172.460571,205.891815 173.222748,203.911896 173.984924,201.931976 
	C175.059753,201.988617 176.134567,202.045258 177.783203,202.255234 
	C178.827072,202.750198 179.297119,203.091827 179.767151,203.433456 
	C179.703583,203.797958 179.640015,204.162460 179.458832,204.934082 
	C179.341232,205.341187 179.474945,205.722107 179.474945,205.722107 
	C178.685257,207.526505 177.895554,209.330902 176.703156,211.502106 
	C175.493622,212.418259 174.686798,212.967590 173.879974,213.516922 
	C172.527618,213.675888 171.175278,213.834854 169.186401,213.959473 
	C168.365967,213.953018 168.182068,213.980927 167.998169,214.008820 
	C166.620377,213.494812 165.242584,212.980804 163.433990,212.213959 
	C162.809174,211.778580 162.594635,211.750000 162.359589,211.875397 
	C161.447906,210.165039 160.536240,208.454666 159.572479,206.114929 
	C159.345932,204.656570 159.171478,203.827606 158.997040,202.998627 
	C158.970322,199.640976 158.943588,196.283325 159.084747,192.171814 
	C159.276886,190.250076 159.301132,189.082169 159.325378,187.914276 
	C159.520279,187.503830 159.715164,187.093399 160.223145,186.193115 
	C160.720627,185.147842 160.905029,184.592407 161.089432,184.036987 
	C167.048172,179.288391 173.435501,179.450287 178.046570,185.021088 
	C178.557144,186.398117 178.823013,187.214630 179.088882,188.031128 
	C178.918854,189.022018 178.748840,190.012894 178.065857,191.198502 
	C177.011749,191.508194 176.470596,191.623169 175.929459,191.738159 
	C174.726242,190.683655 173.523010,189.629135 172.110992,187.915100 
	C169.840408,184.652161 168.255875,185.192032 167.015350,187.997559 
z"/>
<path fill="#E6EDF0" opacity="1.000000" stroke="none" 
	d="
M104.149620,205.878082 
	C104.148422,208.451843 104.148422,210.579712 104.148422,212.970367 
	C101.613731,212.970367 99.557602,212.970367 97.501465,212.970367 
	C97.936310,212.734726 98.371155,212.499084 98.805992,212.263443 
	C95.921730,202.055176 93.037460,191.846909 90.088577,181.409973 
	C91.943245,181.409973 94.017921,181.409973 96.413330,181.409973 
	C97.813248,185.138290 99.246101,188.954315 101.084923,193.851517 
	C102.360931,190.498062 103.242851,188.194199 104.114601,185.886490 
	C106.086426,180.666565 106.084389,180.665802 111.933853,181.591202 
	C109.343307,189.526566 106.747063,197.479385 104.149620,205.878082 
z"/>
<path fill="#1B3434" opacity="1.000000" stroke="none" 
	d="
M95.715157,105.231262 
	C93.303841,103.150047 90.892532,101.068832 87.556091,98.189125 
	C87.556091,100.974121 87.641907,102.634293 87.538673,104.282631 
	C87.306145,107.995422 87.324890,111.772591 86.588051,115.390503 
	C85.942764,118.558922 87.296158,121.723717 90.612450,121.889824 
	C93.862061,122.052589 97.145813,121.533829 101.102417,121.267967 
	C101.102417,128.954483 101.074829,136.841232 101.115524,144.727646 
	C101.132637,148.044998 100.801270,151.471313 101.509453,154.651932 
	C102.485245,159.034531 99.946373,160.282425 96.832458,160.289932 
	C77.529533,160.336502 58.225529,160.164413 38.923409,159.935883 
	C37.082088,159.914093 35.251282,159.004822 33.717682,158.262878 
	C55.694740,158.018188 77.369713,158.018188 99.514061,158.018188 
	C99.514061,149.783890 99.512604,142.164932 99.514412,134.545990 
	C99.516815,124.419823 99.521027,124.261948 89.520256,124.064796 
	C85.888420,123.993195 85.079819,122.568184 85.135818,119.265167 
	C85.293503,109.964111 85.161484,100.658142 85.143677,91.354111 
	C85.143677,91.354111 85.300735,91.275398 85.500580,91.372375 
	C86.298187,91.783905 86.895950,92.098457 87.493706,92.413010 
	C87.493706,92.413010 87.534088,92.489464 87.600342,92.721619 
	C87.810165,93.239838 88.041954,93.385788 88.361954,93.391640 
	C88.361954,93.391640 88.387581,93.542786 88.496506,93.886383 
	C89.404030,95.158554 90.202637,96.087120 91.001244,97.015694 
	C91.001244,97.015694 91.004623,96.996872 91.066925,97.330231 
	C92.779976,100.079262 94.430733,102.494934 95.991737,104.992859 
	C95.901985,105.075119 95.715157,105.231262 95.715157,105.231262 
z"/>
<path fill="#CBB02D" opacity="1.000000" stroke="none" 
	d="
M84.843018,91.595459 
	C85.161484,100.658142 85.293503,109.964111 85.135818,119.265167 
	C85.079819,122.568184 85.888420,123.993195 89.520256,124.064796 
	C99.521027,124.261948 99.516815,124.419823 99.514412,134.545990 
	C99.512604,142.164932 99.514061,149.783890 99.514061,158.018188 
	C77.369713,158.018188 55.694740,158.018188 33.574028,157.891266 
	C33.128284,157.764328 33.125336,157.398087 33.162888,156.762146 
	C33.216354,148.815048 33.239494,141.503876 33.246517,134.192703 
	C33.257526,122.724121 33.351803,122.642487 45.027573,124.469444 
	C43.051414,124.942719 41.079643,125.779694 39.098061,125.803612 
	C36.161407,125.839066 34.849319,126.805618 34.895542,129.872849 
	C35.011009,137.535004 34.978596,145.200256 34.923046,152.863663 
	C34.901325,155.860031 36.325996,157.013855 39.213116,157.007629 
	C57.373051,156.968414 75.533165,156.959351 93.693054,157.005875 
	C96.894028,157.014069 98.147621,155.611465 98.104225,152.454071 
	C98.003494,145.124847 97.945435,137.789658 98.141235,130.464127 
	C98.234444,126.976860 96.978500,125.847267 93.513878,125.818138 
	C84.018555,125.738312 83.966026,125.600220 84.065399,116.243965 
	C84.151825,108.107468 84.377968,99.972466 84.843018,91.595459 
z"/>
<path fill="#1B3434" opacity="1.000000" stroke="none" 
	d="
M45.287361,124.326324 
	C33.351803,122.642487 33.257526,122.724121 33.246517,134.192703 
	C33.239494,141.503876 33.216354,148.815048 33.096062,156.591644 
	C32.659485,155.645020 32.054657,154.235794 32.039829,152.820404 
	C31.951019,144.341385 32.087776,135.859604 31.961468,127.381554 
	C31.898466,123.152786 33.275791,121.370766 37.874298,121.861542 
	C44.962605,122.618042 45.442554,121.743462 45.025761,114.576241 
	C44.544777,106.305138 44.488010,98.008987 43.983402,89.739807 
	C43.732853,85.634102 42.892399,81.564400 42.267818,77.115097 
	C42.381916,77.115097 43.461273,77.115097 44.593758,77.115097 
	C45.810417,73.256195 43.456776,73.080673 40.634041,72.932259 
	C38.096889,72.798859 35.585381,72.177757 33.078072,71.336700 
	C33.093586,70.901619 33.307701,70.708076 33.661003,70.810638 
	C34.731098,70.878601 35.447891,70.844009 36.164680,70.809418 
	C36.558998,70.854233 36.953312,70.899055 38.021362,71.018188 
	C39.487411,71.001915 40.279724,70.911331 41.072037,70.820755 
	C42.640511,70.931732 44.208984,71.042717 46.192764,71.667053 
	C46.649204,74.007172 46.713020,75.833740 46.727859,77.660706 
	C46.839798,91.444305 46.942101,105.227982 47.047413,119.011635 
	C47.014042,119.438576 46.980675,119.865517 46.881981,120.943497 
	C46.756523,122.303101 46.696388,123.011665 46.636253,123.720230 
	C46.273216,123.874550 45.910179,124.028870 45.287361,124.326324 
z"/>
<path fill="#1B3434" opacity="1.000000" stroke="none" 
	d="
M196.948502,124.461937 
	C196.577103,124.281082 196.205704,124.100220 195.632019,123.404373 
	C195.490433,105.679237 195.551117,88.469093 195.611786,71.258942 
	C195.611786,71.258942 195.861664,71.249687 196.328827,71.209381 
	C197.580292,71.046585 198.364594,70.924095 199.148911,70.801598 
	C200.807480,70.851425 202.466034,70.901245 204.901749,71.026672 
	C206.712219,71.016594 207.745544,70.930923 208.778870,70.845245 
	C207.141464,74.917709 203.646683,72.478500 201.044174,72.916313 
	C197.030518,73.591530 196.338669,74.725258 198.644348,78.902969 
	C199.000000,79.000000 198.995132,78.995728 198.995132,78.995728 
	C198.649872,82.436043 198.144547,85.869194 197.990250,89.318054 
	C197.576263,98.570641 197.395187,107.833946 196.947144,117.084541 
	C196.775833,120.621414 197.813538,122.126213 201.659241,122.101669 
	C209.996429,122.048470 210.060059,122.239204 209.988266,130.576813 
	C209.914185,139.181335 209.701859,147.784683 209.197571,156.252899 
	C208.833817,148.791718 208.817276,141.466156 208.812408,134.140594 
	C208.804932,122.923088 208.808258,122.922455 197.401474,124.256348 
	C197.244614,124.274696 197.099243,124.391228 196.948502,124.461937 
z"/>
<path fill="#CBB02D" opacity="1.000000" stroke="none" 
	d="
M197.171295,124.791412 
	C197.099243,124.391228 197.244614,124.274696 197.401474,124.256348 
	C208.808258,122.922455 208.804932,122.923088 208.812408,134.140594 
	C208.817276,141.466156 208.833817,148.791718 208.940506,156.583038 
	C209.035873,157.048782 208.903687,157.400040 208.453217,157.711151 
	C186.338715,158.022263 164.674698,158.022263 142.492126,158.022263 
	C142.492126,146.577209 142.492126,135.801102 142.492126,125.024994 
	C142.608017,124.861694 142.723923,124.698395 143.398743,124.267776 
	C147.991119,124.101227 152.024567,124.201996 156.057999,124.302765 
	C153.468033,124.830154 150.884964,125.740494 148.286362,125.787178 
	C145.097305,125.844467 143.805267,126.896378 143.871307,130.162155 
	C144.022598,137.643036 143.996109,145.129608 143.907089,152.612274 
	C143.868439,155.861649 145.373199,157.017227 148.464355,157.008789 
	C166.591690,156.959351 184.719284,156.964478 202.846664,157.005112 
	C205.769287,157.011673 207.108307,155.775589 207.087784,152.826035 
	C207.033417,145.010010 207.037201,137.193222 207.079987,129.377075 
	C207.096893,126.291054 205.736862,125.308304 202.700089,125.700203 
	C200.984909,125.921555 199.166183,125.340500 197.171295,124.791412 
z"/>
<path fill="#1B3434" opacity="1.000000" stroke="none" 
	d="
M142.164948,125.194687 
	C142.492126,135.801102 142.492126,146.577209 142.492126,158.022263 
	C164.674698,158.022263 186.338715,158.022263 208.450516,157.898804 
	C207.227264,158.517303 205.565231,159.881958 203.883850,159.906204 
	C184.268692,160.189133 164.650009,160.363297 145.034454,160.233429 
	C143.410645,160.222687 140.426422,157.810516 140.407959,156.481705 
	C140.274414,146.870224 140.724747,137.249817 141.051437,127.634323 
	C141.077408,126.869652 141.564804,126.120651 142.164948,125.194687 
z"/>
<path fill="#F3F8FA" opacity="1.000000" stroke="none" 
	d="
M146.062820,181.044556 
	C147.099869,181.079483 148.136932,181.114410 149.888611,181.378006 
	C150.756226,192.075821 150.909180,202.544952 151.062134,213.014084 
	C149.321915,213.070282 147.581711,213.126480 145.405304,212.621582 
	C144.891022,201.998978 144.812927,191.937454 144.734833,181.875931 
	C144.734833,181.875931 144.900864,181.747711 145.097412,181.621277 
	C145.597244,181.425003 145.853531,181.274902 146.062820,181.044556 
z"/>
<path fill="#01274E" opacity="1.000000" stroke="none" 
	d="
M155.054138,119.022903 
	C150.282791,118.636147 145.511459,118.249390 140.408356,117.556931 
	C140.450592,115.571770 140.824554,113.892311 141.511353,112.086670 
	C143.636368,109.380760 145.448578,106.801018 147.608887,104.151573 
	C149.981430,102.224609 152.005844,100.367355 154.030273,98.510101 
	C154.644730,98.587158 155.259201,98.664215 155.873657,98.741272 
	C151.919205,105.576973 154.051773,112.087982 155.352386,118.646080 
	C155.372589,118.747963 155.158752,118.896263 155.054138,119.022903 
z"/>
<path fill="#1B3434" opacity="1.000000" stroke="none" 
	d="
M154.968323,119.402344 
	C155.158752,118.896263 155.372589,118.747963 155.352386,118.646080 
	C154.051773,112.087982 151.919205,105.576973 155.873657,98.741272 
	C155.259201,98.664215 154.644730,98.587158 154.030273,98.510101 
	C152.005844,100.367355 149.981430,102.224609 147.488556,104.045319 
	C147.020126,104.008774 146.784760,103.790428 146.870667,103.492752 
	C147.130646,102.609680 147.304718,102.024284 147.478806,101.438889 
	C147.478806,101.438889 147.272522,101.237495 147.696915,101.237625 
	C148.800278,100.206078 149.479263,99.174400 150.158234,98.142715 
	C150.158234,98.142715 150.044342,98.007530 150.344940,97.996552 
	C150.781128,97.663651 150.916733,97.341728 151.052338,97.019814 
	C151.052338,97.019814 150.998398,97.004356 151.308563,96.899323 
	C152.242355,95.732483 152.866013,94.670677 153.489655,93.608871 
	C153.489670,93.608879 153.587921,93.541321 153.817749,93.422691 
	C154.322998,93.113815 154.445190,92.852058 154.414139,92.518791 
	C154.414139,92.518791 154.493668,92.481102 154.771210,92.372963 
	C155.627823,91.846634 156.206879,91.428452 156.785950,91.010269 
	C156.715088,101.869453 156.644211,112.728638 156.315674,123.945290 
	C152.024567,124.201996 147.991119,124.101227 143.498352,123.984406 
	C144.844681,123.321556 146.648117,122.668411 148.456604,122.029633 
	C150.596298,121.273865 152.740341,120.530510 154.968323,119.402344 
z"/>
<path fill="#CBB02D" opacity="1.000000" stroke="none" 
	d="
M208.809998,70.871674 
	C207.745544,70.930923 206.712219,71.016594 205.312347,70.959602 
	C205.654404,69.250031 206.933624,67.698212 206.975479,66.113701 
	C207.186493,58.125153 207.218597,50.123096 206.941574,42.138687 
	C206.892868,40.735130 205.091049,38.213375 204.071930,38.199604 
	C189.089661,37.997128 174.102753,38.122482 159.117233,38.214252 
	C158.311798,38.219181 157.508774,38.616077 156.299805,38.536633 
	C156.040100,37.861282 156.185211,37.479813 156.330338,37.098343 
	C156.330338,37.098343 156.662399,37.090954 157.271133,37.033791 
	C174.879776,37.074551 191.879669,37.172474 208.879578,37.270397 
	C208.879578,37.270397 208.895706,37.094231 208.834564,37.558212 
	C208.772736,48.994923 208.772034,59.967659 208.771332,70.940392 
	C208.771332,70.940392 208.841125,70.898094 208.809998,70.871674 
z"/>
<path fill="#1B3434" opacity="1.000000" stroke="none" 
	d="
M32.901413,36.926281 
	C34.237225,36.366421 35.577076,35.311901 36.908226,35.322773 
	C51.127602,35.438896 65.364067,36.249058 79.556519,35.750153 
	C87.143883,35.483440 90.835258,38.700371 93.030762,45.552319 
	C92.975037,46.018936 92.749863,46.244354 92.520279,46.150352 
	C92.041389,45.814407 91.743187,45.685974 91.396095,45.671055 
	C91.396095,45.671055 91.176445,45.723873 91.248085,45.409790 
	C90.904060,44.699978 90.488403,44.304253 90.072739,43.908527 
	C90.072739,43.908527 90.011971,43.984516 90.008133,43.610863 
	C87.666290,41.152550 85.373703,37.325916 82.982979,37.263580 
	C66.432289,36.832066 49.861164,37.184155 33.198471,37.194294 
	C33.100342,37.103973 32.901413,36.926281 32.901413,36.926281 
z"/>
<path fill="#425972" opacity="1.000000" stroke="none" 
	d="
M151.441925,212.919785 
	C150.909180,202.544952 150.756226,192.075821 150.274704,181.326706 
	C150.896439,181.852966 152.660095,182.646790 152.672623,183.467346 
	C152.815903,192.851028 152.702621,202.238876 152.605988,211.625076 
	C152.601837,212.027863 152.094604,212.425476 151.441925,212.919785 
z"/>
<path fill="#425972" opacity="1.000000" stroke="none" 
	d="
M144.385254,182.034973 
	C144.812927,191.937454 144.891022,201.998978 144.978516,212.528687 
	C144.488892,212.620956 143.551117,212.240540 143.554916,211.869766 
	C143.656036,201.977234 143.854065,192.085709 144.385254,182.034973 
z"/>
<path fill="#1B3434" opacity="1.000000" stroke="none" 
	d="
M208.692993,36.941597 
	C191.879669,37.172474 174.879776,37.074551 157.404694,36.935097 
	C157.891602,36.421471 158.848022,35.550819 159.816635,35.537014 
	C174.521774,35.327438 189.228500,35.184982 203.934952,35.174122 
	C205.458420,35.172997 206.982590,36.110703 208.692993,36.941597 
z"/>
<path fill="#072542" opacity="1.000000" stroke="none" 
	d="
M62.274998,184.165100 
	C62.743088,193.378540 62.875061,202.767059 63.019615,212.572754 
	C59.830173,212.849472 58.739552,211.991882 59.902012,208.287064 
	C61.053276,204.617905 60.695206,200.475113 60.998722,196.540039 
	C61.312382,192.473434 61.625515,188.406799 62.274998,184.165100 
z"/>
<path fill="#1B3434" opacity="1.000000" stroke="none" 
	d="
M127.822586,73.822906 
	C130.889313,69.514107 133.956039,65.205307 137.503723,60.945671 
	C137.984680,60.994835 138.216034,61.209827 138.134888,61.491020 
	C137.854584,62.314240 137.655426,62.856270 137.456253,63.398300 
	C137.456253,63.398300 137.354889,63.470188 137.127670,63.619354 
	C136.647995,63.999645 136.555679,64.282944 136.623520,64.618401 
	C136.623520,64.618401 136.765991,64.805153 136.366364,64.842209 
	C134.469711,67.044167 132.972672,69.209068 131.475647,71.373970 
	C131.475647,71.373970 131.348328,71.447182 131.119720,71.612686 
	C130.634460,72.012169 130.543564,72.298706 130.618393,72.637810 
	C130.618393,72.637810 130.875275,73.010338 130.461426,72.901733 
	C129.470123,73.284882 128.892685,73.776627 128.191406,74.157730 
	C128.067596,74.047096 127.822586,73.822906 127.822586,73.822906 
z"/>
<path fill="#1B3434" opacity="1.000000" stroke="none" 
	d="
M155.959824,37.096828 
	C156.185211,37.479813 156.040100,37.861282 155.875916,38.547653 
	C155.856842,38.852547 155.892181,38.866413 155.589157,38.984123 
	C155.004013,39.639774 154.721909,40.177719 154.439804,40.715668 
	C153.981079,41.232960 153.522354,41.750248 152.692871,42.651447 
	C151.759521,43.920952 151.196930,44.806545 150.634338,45.692139 
	C150.634338,45.692135 150.916153,45.920811 150.491699,45.957214 
	C149.563690,46.856403 149.060120,47.719196 148.556549,48.581993 
	C148.556564,48.581993 148.846786,48.753578 148.453857,48.781914 
	C147.933075,49.112541 147.805252,49.414837 147.677414,49.717133 
	C147.677414,49.717133 147.924423,49.776619 147.557556,49.800201 
	C146.934738,50.042885 146.647293,50.206688 146.199478,50.188370 
	C146.070618,50.061543 145.815308,49.805458 145.815308,49.805458 
	C147.726685,44.533207 150.715073,40.089161 155.959824,37.096828 
z"/>
<path fill="#1B3434" opacity="1.000000" stroke="none" 
	d="
M32.984894,70.996552 
	C32.582745,67.352386 32.055153,63.613907 32.045357,59.874065 
	C32.025932,52.457600 32.292168,45.040382 32.670876,37.274879 
	C32.901413,36.926281 33.100342,37.103973 33.188217,37.643608 
	C33.286625,49.024857 33.297165,59.866467 33.307701,70.708076 
	C33.307701,70.708076 33.093586,70.901619 32.984894,70.996552 
z"/>
<path fill="#1B3434" opacity="1.000000" stroke="none" 
	d="
M209.088226,70.662445 
	C208.772034,59.967659 208.772736,48.994923 208.746124,37.558605 
	C209.096390,37.614742 209.806564,38.137085 209.802490,38.653793 
	C209.718964,49.231083 209.553909,59.807724 209.088226,70.662445 
z"/>
<path fill="#1B3434" opacity="1.000000" stroke="none" 
	d="
M93.086693,45.905308 
	C96.157486,49.556480 99.116631,53.321281 102.019394,57.558193 
	C101.963020,58.030304 101.730499,58.261116 101.506958,58.164787 
	C101.049156,57.822948 100.763412,57.681271 100.426193,57.643433 
	C100.426193,57.643433 100.212143,57.899643 100.275360,57.520344 
	C100.183968,56.824482 99.931770,56.645382 99.581985,56.603745 
	C99.581985,56.603745 99.558807,56.518860 99.469673,56.159897 
	C97.457779,53.391933 95.535027,50.982937 93.612274,48.573940 
	C93.612274,48.573940 93.578911,48.506248 93.514954,48.185871 
	C93.217293,47.325115 92.983574,46.784733 92.749863,46.244354 
	C92.749863,46.244354 92.975037,46.018936 93.086693,45.905308 
z"/>
<path fill="#1B3434" opacity="1.000000" stroke="none" 
	d="
M106.057419,116.887955 
	C106.162575,117.198784 106.332283,117.469070 106.791092,118.163055 
	C107.832596,119.529099 108.649551,120.430893 109.466515,121.332687 
	C109.466515,121.332687 109.501312,121.422653 109.572174,121.741058 
	C109.889374,122.600838 110.135719,123.142220 110.256439,123.789955 
	C110.130821,123.896317 109.880539,124.110176 109.880539,124.110176 
	C108.611504,124.211754 107.342468,124.313332 105.613533,124.451729 
	C107.505211,121.009628 105.698067,120.665085 103.096756,121.518051 
	C103.475037,119.655029 103.788361,118.111900 104.413895,116.314301 
	C105.169876,116.335884 105.613647,116.611916 106.057419,116.887955 
z"/>
<path fill="#1B3434" opacity="1.000000" stroke="none" 
	d="
M122.005562,83.865738 
	C121.567719,83.883194 121.129883,83.900650 120.327324,83.584824 
	C119.435318,82.728889 118.908028,82.206245 118.380737,81.683594 
	C118.380737,81.683594 118.018105,81.809830 118.167557,81.461731 
	C117.894081,80.720299 117.471169,80.326981 117.048248,79.933655 
	C117.048248,79.933655 117.002907,79.992226 117.021179,79.683960 
	C116.924812,79.004082 116.810165,78.632462 116.814339,78.149567 
	C116.933159,78.038284 117.166344,77.811066 117.166344,77.811066 
	C120.096985,80.308830 122.678757,79.317337 125.559769,77.002243 
	C125.990082,76.989594 126.215790,77.187141 126.124779,77.484467 
	C125.684631,78.521431 125.335487,79.261063 124.986359,80.000702 
	C124.986359,80.000702 125.003838,80.001335 124.705414,80.109550 
	C123.606506,81.433762 122.806038,82.649750 122.005562,83.865738 
z"/>
<path fill="#1B3434" opacity="1.000000" stroke="none" 
	d="
M136.159210,119.127846 
	C136.990143,121.356667 137.821060,123.585487 138.871490,126.403076 
	C136.528564,125.411491 134.554321,124.575935 132.361023,123.269180 
	C132.257935,122.384773 132.373871,121.971573 132.489792,121.558365 
	C132.489792,121.558365 132.598328,121.493126 132.879684,121.328613 
	C133.986771,120.343613 134.812500,119.523132 135.768402,118.809052 
	C135.898560,118.915459 136.159210,119.127846 136.159210,119.127846 
z"/>
<path fill="#C0A82D" opacity="1.000000" stroke="none" 
	d="
M106.060989,116.531647 
	C105.613647,116.611916 105.169876,116.335884 104.481407,115.951340 
	C104.236710,115.842827 104.208717,115.858452 104.153236,115.541916 
	C103.412094,114.470482 102.726425,113.715576 102.040764,112.960670 
	C102.040764,112.960670 101.996986,112.991760 101.960075,112.703979 
	C101.647423,112.166580 101.371681,111.916962 101.095940,111.667343 
	C101.095940,111.667343 100.988930,111.328056 100.796532,110.917328 
	C99.767281,109.649620 98.930428,108.792641 98.093575,107.935661 
	C98.093575,107.935661 98.039032,107.915253 98.066315,107.612259 
	C97.877762,106.757217 97.661926,106.205162 97.446091,105.653099 
	C100.318916,109.160515 103.191742,112.667931 106.060989,116.531647 
z"/>
<path fill="#1B3434" opacity="1.000000" stroke="none" 
	d="
M139.826447,57.823338 
	C141.612961,55.230564 143.399490,52.637791 145.500656,49.925240 
	C145.815308,49.805458 146.070618,50.061543 146.093933,50.502800 
	C145.233597,52.429523 144.349960,53.914993 143.466309,55.400463 
	C143.466309,55.400463 143.379852,55.472088 143.149445,55.603790 
	C142.641632,55.946167 142.533478,56.222965 142.594559,56.565887 
	C142.594559,56.565887 142.665359,56.665707 142.360321,56.726685 
	C141.922974,57.094944 141.790680,57.402225 141.658401,57.709511 
	C141.658401,57.709511 141.975037,57.751572 141.577271,57.778992 
	C140.892258,57.972321 140.605011,58.138229 140.194626,58.184242 
	C140.071503,58.064350 139.826447,57.823338 139.826447,57.823338 
z"/>
<path fill="#1B3434" opacity="1.000000" stroke="none" 
	d="
M105.183449,61.787567 
	C107.154930,64.210068 109.126419,66.632561 111.037399,69.526520 
	C110.976891,69.997971 110.732109,70.224922 110.481598,70.062729 
	C109.502640,69.253357 108.774185,68.606194 108.045723,67.959030 
	C108.045723,67.959030 108.000000,67.999695 107.996445,67.677948 
	C107.455070,66.798180 106.917252,66.240166 106.379433,65.682152 
	C106.379433,65.682152 106.116875,65.948135 106.197029,65.555946 
	C106.009453,64.981071 105.741714,64.798378 105.473984,64.615692 
	C105.473984,64.615692 105.153175,64.753204 105.279053,64.357452 
	C105.190659,63.385368 104.976395,62.809029 104.867905,62.121826 
	C104.973679,62.010963 105.183449,61.787567 105.183449,61.787567 
z"/>
<path fill="#1B3434" opacity="1.000000" stroke="none" 
	d="
M141.198532,112.212852 
	C140.824554,113.892311 140.450592,115.571770 140.012756,117.613838 
	C138.873703,118.237267 137.798508,118.498077 136.441269,118.943375 
	C136.159210,119.127846 135.898560,118.915459 135.829514,118.527687 
	C135.816864,117.765938 135.873276,117.391960 135.929688,117.017982 
	C135.929688,117.017982 136.019287,117.008453 136.308105,116.867180 
	C137.113419,115.859055 137.629898,114.992195 138.146393,114.125343 
	C138.445206,113.976990 138.670395,113.754211 139.174942,113.153366 
	C139.950470,112.509041 140.373016,112.168350 140.897461,111.922745 
	C140.999359,112.017830 141.198532,112.212852 141.198532,112.212852 
z"/>
<path fill="#1B3434" opacity="1.000000" stroke="none" 
	d="
M129.199844,128.206497 
	C128.862793,130.321411 129.452011,133.046677 125.513504,133.068298 
	C125.048363,133.041656 124.865837,132.868622 124.973663,132.562653 
	C126.300117,130.763687 127.518745,129.270660 128.853912,127.883850 
	C128.970474,127.990044 129.199844,128.206497 129.199844,128.206497 
z"/>
<path fill="#28435E" opacity="1.000000" stroke="none" 
	d="
M173.754517,201.732727 
	C173.222748,203.911896 172.460571,205.891815 171.358521,207.989685 
	C171.853790,205.916245 172.688950,203.724854 173.754517,201.732727 
z"/>
<path fill="#1B3434" opacity="1.000000" stroke="none" 
	d="
M112.703491,125.560783 
	C112.703491,125.560783 112.753166,125.797112 112.853271,126.174675 
	C113.074432,126.943489 113.195480,127.334740 113.196671,127.838638 
	C113.076820,127.951279 112.841652,128.181290 112.841652,128.181290 
	C111.888985,127.050301 110.936325,125.919312 109.932098,124.449249 
	C109.880539,124.110176 110.130821,123.896317 110.488159,123.983345 
	C111.464821,124.567177 112.084152,125.063980 112.703491,125.560783 
z"/>
<path fill="#28435E" opacity="1.000000" stroke="none" 
	d="
M167.327652,187.958557 
	C168.255875,185.192032 169.840408,184.652161 171.898209,187.639709 
	C170.476120,187.989090 169.058044,187.954315 167.327652,187.958557 
z"/>
<path fill="#1B3434" opacity="1.000000" stroke="none" 
	d="
M117.162888,133.116211 
	C117.547676,132.699478 117.850281,132.800690 118.341522,133.413605 
	C118.708702,134.095352 118.940208,134.298859 119.275291,134.384460 
	C119.275291,134.384460 119.316658,134.601624 119.450966,134.926453 
	C119.782310,135.740021 119.979355,136.228790 120.176399,136.717545 
	C119.161369,135.639297 118.146339,134.561035 117.162888,133.116211 
z"/>
<path fill="#1B3434" opacity="1.000000" stroke="none" 
	d="
M111.096321,69.881378 
	C112.170807,70.886345 113.125854,72.007904 114.015930,73.580078 
	C113.950943,74.030693 113.709343,74.252304 113.464691,74.107162 
	C112.635124,73.513901 112.050201,73.065788 111.465279,72.617676 
	C111.340851,72.731255 111.216415,72.844841 111.245865,72.466652 
	C111.177200,71.391563 110.954651,70.808243 110.732101,70.224922 
	C110.732109,70.224922 110.976891,69.997971 111.096321,69.881378 
z"/>
<path fill="#28435E" opacity="1.000000" stroke="none" 
	d="
M179.380402,187.938965 
	C178.823013,187.214630 178.557144,186.398117 178.310791,185.256317 
	C180.143204,185.274551 181.913544,185.637680 179.380402,187.938965 
z"/>
<path fill="#1B3434" opacity="1.000000" stroke="none" 
	d="
M116.923782,131.185257 
	C117.039726,131.542175 117.155678,131.899078 117.261063,132.537384 
	C116.136864,131.841553 115.023224,130.864319 113.946861,129.448074 
	C113.984138,129.009079 114.169495,128.842026 114.428619,129.002548 
	C115.433098,129.837128 116.178444,130.511200 116.923782,131.185257 
z"/>
<path fill="#C0A82D" opacity="1.000000" stroke="none" 
	d="
M120.167259,136.748917 
	C119.979355,136.228790 119.782310,135.740021 119.541473,134.989899 
	C120.374260,134.500366 121.250839,134.272186 122.649132,134.298630 
	C123.200874,134.733810 123.230919,134.914383 123.260956,135.094940 
	C123.260956,135.094940 122.992455,135.290100 122.685654,135.586517 
	C122.181244,136.214493 121.983635,136.546066 121.786026,136.877640 
	C121.786034,136.877640 121.913765,136.870422 121.608719,136.768585 
	C120.911026,136.686691 120.518372,136.706604 120.125725,136.726532 
	C120.125725,136.726532 120.158119,136.780289 120.167259,136.748917 
z"/>
<path fill="#1B3434" opacity="1.000000" stroke="none" 
	d="
M102.078354,57.913971 
	C103.071587,58.946182 103.949501,60.094730 105.005432,61.515423 
	C105.183449,61.787567 104.973679,62.010963 104.630295,62.029083 
	C103.975121,61.925934 103.663338,61.804661 103.351555,61.683392 
	C103.351555,61.683392 103.083160,61.797100 103.187073,61.465042 
	C102.886436,60.728214 102.481895,60.323444 102.077347,59.918678 
	C102.077347,59.918678 102.002701,59.996601 102.029694,59.677773 
	C101.947960,58.993000 101.839226,58.627056 101.730499,58.261116 
	C101.730499,58.261116 101.963020,58.030304 102.078354,57.913971 
z"/>
<path fill="#28435E" opacity="1.000000" stroke="none" 
	d="
M174.050125,213.781387 
	C174.686798,212.967590 175.493622,212.418259 176.589676,211.811035 
	C175.992706,212.517380 175.106491,213.281616 174.050125,213.781387 
z"/>
<path fill="#1B3434" opacity="1.000000" stroke="none" 
	d="
M98.064514,108.284653 
	C98.930428,108.792641 99.767281,109.649620 100.653290,110.811867 
	C99.813446,110.289299 98.924446,109.461479 98.064514,108.284653 
z"/>
<path fill="#1B3434" opacity="1.000000" stroke="none" 
	d="
M130.486008,124.254494 
	C130.486008,124.254494 130.815720,124.215858 130.958786,124.300026 
	C130.662216,125.560196 130.222595,126.736206 129.491394,128.059357 
	C129.199844,128.206497 128.970474,127.990044 128.930298,127.593040 
	C128.940048,126.804672 128.989990,126.413300 129.039917,126.021935 
	C129.039917,126.021935 128.998215,126.001541 129.295563,125.902954 
	C129.890610,125.287735 130.188309,124.771118 130.486008,124.254494 
z"/>
<path fill="#1B3434" opacity="1.000000" stroke="none" 
	d="
M97.392792,105.623138 
	C97.661926,106.205162 97.877762,106.757217 98.095291,107.606812 
	C97.361855,107.228477 96.626724,106.552597 95.803375,105.553993 
	C95.715157,105.231262 95.901985,105.075119 96.212349,105.065994 
	C96.759308,105.270004 97.033676,105.408066 97.345818,105.471062 
	C97.345818,105.471062 97.339485,105.593185 97.392792,105.623138 
z"/>
<path fill="#1B3434" opacity="1.000000" stroke="none" 
	d="
M137.866516,60.890060 
	C138.247269,59.887413 138.746155,58.989544 139.535751,57.957504 
	C139.826447,57.823338 140.071503,58.064350 140.111343,58.464233 
	C139.935455,59.401627 139.719727,59.939137 139.503983,60.476646 
	C139.503983,60.476646 139.465149,60.526196 139.232040,60.633064 
	C138.781509,60.969109 138.520538,61.125740 138.216034,61.209827 
	C138.216034,61.209827 137.984680,60.994835 137.866516,60.890060 
z"/>
<path fill="#28435E" opacity="1.000000" stroke="none" 
	d="
M159.076508,188.067383 
	C159.301132,189.082169 159.276886,190.250076 159.055084,191.715424 
	C158.847549,190.748734 158.837585,189.484604 159.076508,188.067383 
z"/>
<path fill="#28435E" opacity="1.000000" stroke="none" 
	d="
M158.800095,203.183411 
	C159.171478,203.827606 159.345932,204.656570 159.404129,205.787720 
	C159.059631,205.182648 158.831390,204.275421 158.800095,203.183411 
z"/>
<path fill="#1B3434" opacity="1.000000" stroke="none" 
	d="
M114.070175,73.918198 
	C114.827904,74.594040 115.466408,75.382370 116.066025,76.575859 
	C116.027145,76.981010 115.845367,77.145882 115.606766,77.010094 
	C114.931587,76.559486 114.495010,76.244667 114.058426,75.929848 
	C114.058426,75.929848 113.999275,75.990654 114.026794,75.678146 
	C113.939323,74.994522 113.824333,74.623413 113.709343,74.252304 
	C113.709343,74.252304 113.950943,74.030693 114.070175,73.918198 
z"/>
<path fill="#1B3434" opacity="1.000000" stroke="none" 
	d="
M102.033813,113.314728 
	C102.726425,113.715576 103.412094,114.470482 104.139389,115.536545 
	C103.462967,115.121391 102.744919,114.395088 102.033813,113.314728 
z"/>
<path fill="#1B3434" opacity="1.000000" stroke="none" 
	d="
M125.876022,76.892212 
	C126.255577,75.894272 126.749199,74.993721 127.532700,73.958038 
	C127.822586,73.822906 128.067596,74.047096 128.116699,74.441223 
	C128.094437,75.214272 128.023056,75.593208 127.951675,75.972137 
	C127.951675,75.972137 128.002945,75.994667 127.726334,76.061180 
	C127.038406,76.480843 126.627098,76.833992 126.215790,77.187141 
	C126.215790,77.187141 125.990082,76.989594 125.876022,76.892212 
z"/>
<path fill="#28435E" opacity="1.000000" stroke="none" 
	d="
M166.475800,192.989197 
	C166.180496,192.474670 166.154312,191.899017 166.348007,191.111389 
	C166.626877,191.575623 166.685898,192.251862 166.475800,192.989197 
z"/>
<path fill="#28435E" opacity="1.000000" stroke="none" 
	d="
M176.055969,191.949081 
	C176.470596,191.623169 177.011749,191.508194 177.818802,191.494995 
	C177.450638,191.784531 176.816544,191.972260 176.055969,191.949081 
z"/>
<path fill="#28435E" opacity="1.000000" stroke="none" 
	d="
M160.810425,184.053192 
	C160.905029,184.592407 160.720627,185.147842 160.277969,185.855469 
	C160.190277,185.361572 160.360855,184.715485 160.810425,184.053192 
z"/>
<path fill="#28435E" opacity="1.000000" stroke="none" 
	d="
M162.145752,212.025635 
	C162.594635,211.750000 162.809174,211.778580 163.072479,212.119049 
	C162.750214,212.608612 162.358688,212.940262 161.967163,213.271912 
	C161.955414,212.906555 161.943665,212.541214 162.145752,212.025635 
z"/>
<path fill="#1B3434" opacity="1.000000" stroke="none" 
	d="
M199.002136,79.002426 
	C199.348679,78.542534 199.693054,78.080215 200.037445,77.617897 
	C200.152573,77.723442 200.267685,77.828987 200.382797,77.934540 
	C200.085251,78.253075 199.787704,78.571602 199.242645,78.942932 
	C198.995132,78.995728 199.000000,79.000000 199.002136,79.002426 
z"/>
<path fill="#28435E" opacity="1.000000" stroke="none" 
	d="
M179.831863,203.133102 
	C179.297119,203.091827 178.827072,202.750198 178.180130,202.175690 
	C178.634354,202.239456 179.265457,202.536102 179.831863,203.133102 
z"/>
<path fill="#1B3434" opacity="1.000000" stroke="none" 
	d="
M123.541214,135.019058 
	C123.230919,134.914383 123.200874,134.733810 123.102974,134.287170 
	C123.035110,134.021103 123.002151,134.008987 123.276260,133.938812 
	C123.988853,133.535278 124.427345,133.201950 124.865829,132.868622 
	C124.865837,132.868622 125.048363,133.041656 125.142387,133.127960 
	C124.764763,133.790573 124.293121,134.366882 123.541214,135.019058 
z"/>
<path fill="#28435E" opacity="1.000000" stroke="none" 
	d="
M166.491486,202.047272 
	C166.191437,201.880142 166.090179,201.701828 166.098541,201.235901 
	C166.368866,201.310913 166.529572,201.673508 166.491486,202.047272 
z"/>
<path fill="#28435E" opacity="1.000000" stroke="none" 
	d="
M167.994690,214.219604 
	C168.182068,213.980927 168.365967,213.953018 168.790985,214.065460 
	C168.828949,214.499207 168.625793,214.792603 168.422638,215.085999 
	C168.278824,214.867462 168.135010,214.648926 167.994690,214.219604 
z"/>
<path fill="#1B3434" opacity="1.000000" stroke="none" 
	d="
M120.226593,136.973923 
	C120.518372,136.706604 120.911026,136.686691 121.596298,136.705841 
	C121.368431,136.903717 120.847954,137.062515 120.226593,136.973923 
z"/>
<path fill="#C0A82D" opacity="1.000000" stroke="none" 
	d="
M132.158707,121.595200 
	C132.373871,121.971573 132.257935,122.384773 132.067307,123.115402 
	C131.992615,123.432838 131.591614,123.481102 131.395081,123.433792 
	C131.408249,122.801666 131.617935,122.216850 132.158707,121.595200 
z"/>
<path fill="#28435E" opacity="1.000000" stroke="none" 
	d="
M179.649384,205.736389 
	C179.474945,205.722107 179.341232,205.341187 179.495987,205.211578 
	C179.795334,205.230240 179.939926,205.378525 180.084534,205.526794 
	C179.997620,205.601410 179.910721,205.676041 179.649384,205.736389 
z"/>
<path fill="#1B3434" opacity="1.000000" stroke="none" 
	d="
M116.118683,76.899307 
	C116.448906,77.012123 116.669907,77.225014 117.019783,77.633667 
	C117.166344,77.811066 116.933159,78.038284 116.605721,78.021515 
	C116.023529,77.774139 115.879227,77.487846 115.845367,77.145882 
	C115.845367,77.145882 116.027145,76.981010 116.118683,76.899307 
z"/>
<path fill="#1B3434" opacity="1.000000" stroke="none" 
	d="
M122.064285,136.762207 
	C121.983635,136.546066 122.181244,136.214493 122.641846,135.746582 
	C122.717415,135.955750 122.529984,136.301254 122.064285,136.762207 
z"/>
<path fill="#425972" opacity="1.000000" stroke="none" 
	d="
M145.815536,180.975769 
	C145.853531,181.274902 145.597244,181.425003 145.070038,181.520050 
	C145.086823,181.332474 145.327530,181.119736 145.815536,180.975769 
z"/>
<path fill="#1B3434" opacity="1.000000" stroke="none" 
	d="
M113.890778,129.091843 
	C113.557037,128.981979 113.335541,128.769638 112.987297,128.359436 
	C112.841652,128.181290 113.076820,127.951279 113.406250,127.965446 
	C113.981995,128.215927 114.126602,128.503403 114.169495,128.842026 
	C114.169495,128.842026 113.984138,129.009079 113.890778,129.091843 
z"/>
<path fill="#1B3434" opacity="1.000000" stroke="none" 
	d="
M101.160751,111.944733 
	C101.371681,111.916962 101.647423,112.166580 101.984650,112.695442 
	C101.772606,112.723839 101.499092,112.472984 101.160751,111.944733 
z"/>
<path fill="#CBB02D" opacity="1.000000" stroke="none" 
	d="
M33.661003,70.810638 
	C33.297165,59.866467 33.286625,49.024857 33.286346,37.733932 
	C49.861164,37.184155 66.432289,36.832066 82.982979,37.263580 
	C85.373703,37.325916 87.666290,41.152550 90.050674,43.587265 
	C89.214714,43.546276 87.847092,43.389519 87.527206,42.726925 
	C85.080521,37.659077 80.654694,37.910316 76.072510,37.956387 
	C63.961594,38.078156 51.847050,38.120632 39.737648,37.942940 
	C36.035088,37.888607 34.775776,39.125340 34.883369,42.810894 
	C35.096302,50.104820 34.864681,57.410740 34.966705,64.709602 
	C34.991501,66.483376 35.597935,68.249008 36.050804,70.413902 
	C35.447891,70.844009 34.731098,70.878601 33.661003,70.810638 
z"/>
<path fill="#CBB02D" opacity="1.000000" stroke="none" 
	d="
M195.224365,71.433594 
	C195.551117,88.469093 195.490433,105.679237 195.435440,123.339554 
	C194.968948,122.822922 194.089859,121.858017 194.085342,120.889046 
	C194.012451,105.228836 194.039780,89.568085 194.096497,73.907639 
	C194.099274,73.140289 194.579193,72.374672 195.224365,71.433594 
z"/>
<path fill="#CBB02D" opacity="1.000000" stroke="none" 
	d="
M47.293709,118.679108 
	C46.942101,105.227982 46.839798,91.444305 46.727859,77.660706 
	C46.713020,75.833740 46.649204,74.007172 46.579567,71.735001 
	C47.018867,72.082718 47.896713,72.877388 47.893757,73.668762 
	C47.838108,88.561607 47.678158,103.454056 47.293709,118.679108 
z"/>
<path fill="#1B3434" opacity="1.000000" stroke="none" 
	d="
M147.140457,104.115028 
	C145.448578,106.801018 143.636368,109.380760 141.511353,112.086670 
	C141.198532,112.212852 140.999359,112.017830 140.958527,111.626366 
	C140.971481,110.840294 141.025299,110.445679 141.079102,110.051064 
	C141.079102,110.051064 141.008270,110.001518 141.321014,109.934853 
	C141.922775,109.352448 142.211807,108.836708 142.500854,108.320969 
	C142.500854,108.320969 142.769714,108.127235 143.114532,107.889824 
	C143.696213,107.135872 143.933090,106.619331 144.169983,106.102798 
	C144.169983,106.102798 144.045486,106.036789 144.360657,105.976730 
	C144.921814,105.410797 145.167816,104.904922 145.413803,104.399048 
	C145.413803,104.399048 145.394196,104.308899 145.670044,104.280136 
	C146.190109,104.033318 146.469742,103.879669 146.784760,103.790428 
	C146.784760,103.790428 147.020126,104.008774 147.140457,104.115028 
z"/>
<path fill="#CBB02D" opacity="1.000000" stroke="none" 
	d="
M93.491936,48.932968 
	C95.535027,50.982937 97.457779,53.391933 99.438171,56.129177 
	C97.454407,54.068951 95.413002,51.680473 93.491936,48.932968 
z"/>
<path fill="#C0A82D" opacity="1.000000" stroke="none" 
	d="
M97.400726,105.116409 
	C97.033676,105.408066 96.759308,105.270004 96.302101,104.983742 
	C94.430733,102.494934 92.779976,100.079262 91.057404,97.330353 
	C93.142273,99.585327 95.298958,102.173546 97.400726,105.116409 
z"/>
<path fill="#C0A82D" opacity="1.000000" stroke="none" 
	d="
M124.973663,132.562653 
	C124.427345,133.201950 123.988853,133.535278 123.286102,133.952393 
	C124.795967,131.382629 126.570099,128.729095 128.692078,126.048752 
	C128.989990,126.413300 128.940048,126.804672 128.813751,127.486847 
	C127.518745,129.270660 126.300117,130.763687 124.973663,132.562653 
z"/>
<path fill="#CBB02D" opacity="1.000000" stroke="none" 
	d="
M131.829254,71.415512 
	C132.972672,69.209068 134.469711,67.044167 136.275665,64.767578 
	C135.117355,66.922958 133.650116,69.190010 131.829254,71.415512 
z"/>
<path fill="#CBB02D" opacity="1.000000" stroke="none" 
	d="
M143.827484,55.437363 
	C144.349960,53.914993 145.233597,52.429523 146.222778,50.629623 
	C146.647293,50.206688 146.934738,50.042885 147.431854,49.762840 
	C146.511581,51.626022 145.350113,53.550144 143.827484,55.437363 
z"/>
<path fill="#C0A82D" opacity="1.000000" stroke="none" 
	d="
M114.428619,129.002548 
	C114.126602,128.503403 113.981995,128.215927 113.526100,127.852806 
	C113.195480,127.334740 113.074432,126.943489 112.952484,126.243492 
	C114.300507,127.436531 115.649422,128.938324 116.961060,130.812683 
	C116.178444,130.511200 115.433098,129.837128 114.428619,129.002548 
z"/>
<path fill="#C0A82D" opacity="1.000000" stroke="none" 
	d="
M135.588074,117.057114 
	C135.873276,117.391960 135.816864,117.765938 135.699356,118.421280 
	C134.812500,119.523132 133.986771,120.343613 132.893005,121.266724 
	C133.498810,119.944984 134.372635,118.520615 135.588074,117.057114 
z"/>
<path fill="#CBB02D" opacity="1.000000" stroke="none" 
	d="
M115.606766,77.010094 
	C115.879227,77.487846 116.023529,77.774139 116.486900,78.132797 
	C116.810165,78.632462 116.924812,79.004082 117.054459,79.667725 
	C116.048279,78.857994 115.027092,77.756241 114.032166,76.292168 
	C114.495010,76.244667 114.931587,76.559486 115.606766,77.010094 
z"/>
<path fill="#CBB02D" opacity="1.000000" stroke="none" 
	d="
M110.481598,70.062729 
	C110.954651,70.808243 111.177200,71.391563 111.423706,72.287201 
	C110.315735,71.287422 109.183800,69.975319 108.048790,68.311127 
	C108.774185,68.606194 109.502640,69.253357 110.481598,70.062729 
z"/>
<path fill="#C9AF2B" opacity="1.000000" stroke="none" 
	d="
M149.796997,98.147209 
	C149.479263,99.174400 148.800278,100.206078 147.817047,101.317276 
	C148.153793,100.315094 148.794769,99.233398 149.796997,98.147209 
z"/>
<path fill="#C0A82D" opacity="1.000000" stroke="none" 
	d="
M109.559586,120.994278 
	C108.649551,120.430893 107.832596,119.529099 106.980751,118.311890 
	C107.848129,118.882942 108.750397,119.769409 109.559586,120.994278 
z"/>
<path fill="#C0A82D" opacity="1.000000" stroke="none" 
	d="
M112.692017,125.197388 
	C112.084152,125.063980 111.464821,124.567177 110.613770,123.876984 
	C110.135719,123.142220 109.889374,122.600838 109.615143,121.762955 
	C110.618355,122.588959 111.649452,123.711472 112.692017,125.197388 
z"/>
<path fill="#CBB02D" opacity="1.000000" stroke="none" 
	d="
M126.124779,77.484467 
	C126.627098,76.833992 127.038406,76.480843 127.708023,76.039841 
	C127.207214,77.273621 126.448105,78.595245 125.337677,79.958786 
	C125.335487,79.261063 125.684631,78.521431 126.124779,77.484467 
z"/>
<path fill="#C0A82D" opacity="1.000000" stroke="none" 
	d="
M91.020569,96.635773 
	C90.202637,96.087120 89.404030,95.158554 88.564377,93.922012 
	C89.362175,94.494644 90.201027,95.375252 91.020569,96.635773 
z"/>
<path fill="#C9AF2B" opacity="1.000000" stroke="none" 
	d="
M153.126373,93.519630 
	C152.866013,94.670677 152.242355,95.732483 151.325439,96.921722 
	C151.609161,95.842896 152.186142,94.636642 153.126373,93.519630 
z"/>
<path fill="#CBB02D" opacity="1.000000" stroke="none" 
	d="
M128.304535,75.936485 
	C128.023056,75.593208 128.094437,75.214272 128.240524,74.551857 
	C128.892685,73.776627 129.470123,73.284882 130.324066,72.721359 
	C129.952820,73.733337 129.305099,74.817085 128.304535,75.936485 
z"/>
<path fill="#CBB02D" opacity="1.000000" stroke="none" 
	d="
M113.464691,74.107162 
	C113.824333,74.623413 113.939323,74.994522 114.063545,75.657211 
	C113.142181,75.073288 112.211594,74.197800 111.373138,72.969994 
	C112.050201,73.065788 112.635124,73.513901 113.464691,74.107162 
z"/>
<path fill="#CBB02D" opacity="1.000000" stroke="none" 
	d="
M122.185165,84.058174 
	C122.806038,82.649750 123.606506,81.433762 124.702766,80.101044 
	C124.120621,81.406418 123.242691,82.828506 122.185165,84.058174 
z"/>
<path fill="#C9AF2B" opacity="1.000000" stroke="none" 
	d="
M156.804688,90.718903 
	C156.206879,91.428452 155.627823,91.846634 154.793747,92.335175 
	C154.706345,91.569641 154.873962,90.733749 155.041580,89.897865 
	C155.635529,90.074425 156.229462,90.250977 156.804688,90.718903 
z"/>
<path fill="#CBB02D" opacity="1.000000" stroke="none" 
	d="
M199.045532,70.507187 
	C198.364594,70.924095 197.580292,71.046585 196.400085,71.106667 
	C196.983521,70.767090 197.962830,70.489929 199.045532,70.507187 
z"/>
<path fill="#CBB02D" opacity="1.000000" stroke="none" 
	d="
M92.520279,46.150352 
	C92.983574,46.784733 93.217293,47.325115 93.489716,48.157833 
	C92.760834,47.759193 91.993256,47.068214 91.310883,46.024147 
	C91.743187,45.685974 92.041389,45.814407 92.520279,46.150352 
z"/>
<path fill="#CBB02D" opacity="1.000000" stroke="none" 
	d="
M103.284744,62.033531 
	C103.663338,61.804661 103.975121,61.925934 104.524521,62.139946 
	C104.976395,62.809029 105.190659,63.385368 105.429489,64.268990 
	C104.708679,63.845402 103.963310,63.114536 103.284744,62.033531 
z"/>
<path fill="#CBB02D" opacity="1.000000" stroke="none" 
	d="
M138.134888,61.491020 
	C138.520538,61.125740 138.781509,60.969109 139.214539,60.659225 
	C139.014755,61.543507 138.599365,62.508507 137.820114,63.435905 
	C137.655426,62.856270 137.854584,62.314240 138.134888,61.491020 
z"/>
<path fill="#CBB02D" opacity="1.000000" stroke="none" 
	d="
M139.858276,60.485870 
	C139.719727,59.939137 139.935455,59.401627 140.234467,58.584126 
	C140.605011,58.138229 140.892258,57.972321 141.421234,57.743538 
	C141.179474,58.618805 140.696014,59.556946 139.858276,60.485870 
z"/>
<path fill="#C9AF2B" opacity="1.000000" stroke="none" 
	d="
M146.870667,103.492752 
	C146.469742,103.879669 146.190109,104.033318 145.710892,104.301552 
	C145.908401,103.401604 146.340897,102.451469 147.126099,101.470108 
	C147.304718,102.024284 147.130646,102.609680 146.870667,103.492752 
z"/>
<path fill="#C0A82D" opacity="1.000000" stroke="none" 
	d="
M137.809464,114.149765 
	C137.629898,114.992195 137.113419,115.859055 136.304565,116.822266 
	C136.498978,116.003815 136.985764,115.088997 137.809464,114.149765 
z"/>
<path fill="#CBB02D" opacity="1.000000" stroke="none" 
	d="
M118.286316,81.973969 
	C118.908028,82.206245 119.435318,82.728889 120.001999,83.534904 
	C119.424904,83.300293 118.808403,82.782318 118.286316,81.973969 
z"/>
<path fill="#C0A82D" opacity="1.000000" stroke="none" 
	d="
M140.737946,110.092789 
	C141.025299,110.445679 140.971481,110.840294 140.856628,111.531281 
	C140.373016,112.168350 139.950470,112.509041 139.267517,112.931076 
	C139.470337,112.053116 139.933563,111.093811 140.737946,110.092789 
z"/>
<path fill="#CBB02D" opacity="1.000000" stroke="none" 
	d="
M106.312546,66.016190 
	C106.917252,66.240166 107.455070,66.798180 108.019104,67.656738 
	C107.445427,67.421600 106.845543,66.885918 106.312546,66.016190 
z"/>
<path fill="#CBB02D" opacity="1.000000" stroke="none" 
	d="
M150.979599,45.644100 
	C151.196930,44.806545 151.759521,43.920952 152.620911,42.907074 
	C152.388092,43.717880 151.856476,44.656971 150.979599,45.644100 
z"/>
<path fill="#CBB02D" opacity="1.000000" stroke="none" 
	d="
M101.506958,58.164787 
	C101.839226,58.627056 101.947960,58.993000 102.072678,59.645203 
	C101.481079,59.391781 100.873497,58.852097 100.346054,57.977921 
	C100.763412,57.681271 101.049156,57.822948 101.506958,58.164787 
z"/>
<path fill="#C0A82D" opacity="1.000000" stroke="none" 
	d="
M87.531769,92.105270 
	C86.895950,92.098457 86.298187,91.783905 85.517960,91.286270 
	C86.080269,91.334633 86.825050,91.566078 87.531769,92.105270 
z"/>
<path fill="#CBB02D" opacity="1.000000" stroke="none" 
	d="
M148.906738,48.558170 
	C149.060120,47.719196 149.563690,46.856403 150.341431,45.855518 
	C150.162704,46.656399 149.709808,47.595375 148.906738,48.558170 
z"/>
<path fill="#CBB02D" opacity="1.000000" stroke="none" 
	d="
M40.858543,70.606674 
	C40.279724,70.911331 39.487411,71.001915 38.313950,70.954346 
	C38.836884,70.674995 39.740963,70.533791 40.858543,70.606674 
z"/>
<path fill="#CBB02D" opacity="1.000000" stroke="none" 
	d="
M46.930859,123.640396 
	C46.696388,123.011665 46.756523,122.303101 46.948967,121.259163 
	C47.129345,121.802711 47.177402,122.681633 46.930859,123.640396 
z"/>
<path fill="#CBB02D" opacity="1.000000" stroke="none" 
	d="
M154.769714,40.651615 
	C154.721909,40.177719 155.004013,39.639774 155.574921,38.984703 
	C155.609039,39.440907 155.354340,40.014236 154.769714,40.651615 
z"/>
<path fill="#CBB02D" opacity="1.000000" stroke="none" 
	d="
M102.076767,60.232132 
	C102.481895,60.323444 102.886436,60.728214 103.328224,61.428772 
	C102.935707,61.331566 102.505943,60.938576 102.076767,60.232132 
z"/>
<path fill="#CBB02D" opacity="1.000000" stroke="none" 
	d="
M117.049515,80.251801 
	C117.471169,80.326981 117.894081,80.720299 118.352692,81.411942 
	C117.942513,81.330154 117.496643,80.950050 117.049515,80.251801 
z"/>
<path fill="#C9AF2B" opacity="1.000000" stroke="none" 
	d="
M145.106049,104.455544 
	C145.167816,104.904922 144.921814,105.410797 144.409286,106.027702 
	C144.361282,105.596504 144.579788,105.054276 145.106049,104.455544 
z"/>
<path fill="#C9AF2B" opacity="1.000000" stroke="none" 
	d="
M143.887085,106.194107 
	C143.933090,106.619331 143.696213,107.135872 143.176773,107.736275 
	C143.130859,107.308563 143.367523,106.796997 143.887085,106.194107 
z"/>
<path fill="#C0A82D" opacity="1.000000" stroke="none" 
	d="
M142.180557,108.374710 
	C142.211807,108.836708 141.922775,109.352448 141.347015,109.969330 
	C141.326935,109.523125 141.593597,108.975784 142.180557,108.374710 
z"/>
<path fill="#CBB02D" opacity="1.000000" stroke="none" 
	d="
M90.070824,44.224403 
	C90.488403,44.304253 90.904060,44.699978 91.353546,45.390602 
	C90.947876,45.303757 90.508392,44.922020 90.070824,44.224403 
z"/>
<path fill="#C0A82D" opacity="1.000000" stroke="none" 
	d="
M130.165771,124.323250 
	C130.188309,124.771118 129.890610,125.287735 129.310349,125.920998 
	C129.300354,125.489090 129.572937,124.940544 130.165771,124.323250 
z"/>
<path fill="#CBB02D" opacity="1.000000" stroke="none" 
	d="
M142.860870,56.546776 
	C142.533478,56.222965 142.641632,55.946167 143.138351,55.658813 
	C143.280838,55.897312 143.204010,56.212486 142.860870,56.546776 
z"/>
<path fill="#CBB02D" opacity="1.000000" stroke="none" 
	d="
M136.881546,64.575150 
	C136.555679,64.282944 136.647995,63.999645 137.114655,63.680107 
	C137.265747,63.905094 137.202652,64.218491 136.881546,64.575150 
z"/>
<path fill="#CBB02D" opacity="1.000000" stroke="none" 
	d="
M105.474396,64.886353 
	C105.741714,64.798378 106.009453,64.981071 106.316666,65.412430 
	C106.062363,65.493080 105.768585,65.325050 105.474396,64.886353 
z"/>
<path fill="#CBB02D" opacity="1.000000" stroke="none" 
	d="
M141.929169,57.654594 
	C141.790680,57.402225 141.922974,57.094944 142.302795,56.705833 
	C142.433517,56.949230 142.316727,57.274456 141.929169,57.654594 
z"/>
<path fill="#CBB02D" opacity="1.000000" stroke="none" 
	d="
M99.550713,56.871265 
	C99.931770,56.645382 100.183968,56.824482 100.365585,57.379898 
	C100.101540,57.458767 99.810486,57.298775 99.550713,56.871265 
z"/>
<path fill="#CBB02D" opacity="1.000000" stroke="none" 
	d="
M130.874817,72.586533 
	C130.543564,72.298706 130.634460,72.012169 131.105743,71.684769 
	C131.257339,71.905991 131.194290,72.220627 130.874817,72.586533 
z"/>
<path fill="#C0A82D" opacity="1.000000" stroke="none" 
	d="
M88.405212,93.141708 
	C88.041954,93.385788 87.810165,93.239838 87.638420,92.742096 
	C87.889648,92.650879 88.169060,92.771332 88.405212,93.141708 
z"/>
<path fill="#C9AF2B" opacity="1.000000" stroke="none" 
	d="
M154.150024,92.512932 
	C154.445190,92.852058 154.322998,93.113815 153.830658,93.364487 
	C153.704468,93.118973 153.795181,92.813026 154.150024,92.512932 
z"/>
<path fill="#C9AF2B" opacity="1.000000" stroke="none" 
	d="
M150.812042,97.128387 
	C150.916733,97.341728 150.781128,97.663651 150.389557,98.072769 
	C150.279633,97.852295 150.425674,97.544624 150.812042,97.128387 
z"/>
<path fill="#C0A82D" opacity="1.000000" stroke="none" 
	d="
M119.315628,134.121002 
	C118.940208,134.298859 118.708702,134.095352 118.555573,133.536224 
	C118.805565,133.484818 119.080765,133.671173 119.315628,134.121002 
z"/>
<path fill="#CBB02D" opacity="1.000000" stroke="none" 
	d="
M147.941254,49.654121 
	C147.805252,49.414837 147.933075,49.112541 148.298676,48.716064 
	C148.425980,48.944962 148.315536,49.268036 147.941254,49.654121 
z"/>
<path fill="#1A3551" opacity="1.000000" stroke="none" 
	d="
M49.371620,191.074356 
	C48.936871,195.436462 46.448044,195.700287 43.146202,195.074387 
	C43.146202,192.171570 43.146202,189.436844 43.146202,186.442398 
	C46.771847,185.923126 49.231373,186.527725 49.371620,191.074356 
z"/>
</svg>